P2
30 20
462
##  data/spritesheet.atlas
32 119 119 119 119 119 119 119 119 119 119 119 119 119 119 119 119 119 119 119 119 119 119 119 119 119 119 119 119 144
32 46 216 21 216 214 108 216 216 216 216 216 216 216 216 445 216 216 216 216 214 442 216 274 276 216 216 272 46 144
181 216 216 216 216 214 216 216 216 208 208 208 208 216 216 216 216 208 208 216 214 216 216 275 273 216 216 216 216 144
182 216 216 216 216 185 216 216 216 216 274 216 216 216 216 216 216 216 216 216 214 216 216 216 216 216 216 216 216 181
182 216 216 216 216 216 216 216 216 216 216 216 216 208 208 208 216 216 216 216 215 216 216 216 216 216 216 216 216 182
181 216 216 216 216 216 216 216 216 216 216 216 216 216 439 216 216 216 216 216 186 216 216 216 216 216 216 216 216 181
181 216 216 216 216 216 216 216 216 208 208 216 216 216 216 216 216 216 216 216 216 216 216 216 216 216 216 275 216 181
181 216 216 216 216 216 216 208 208 216 216 216 216 216 216 216 216 216 216 216 216 216 216 216 216 216 216 274 216 181
181 216 216 216 216 216 216 216 102 216 216 216 216 216 216 216 208 208 208 208 208 208 208 208 216 216 216 216 216 181
181 216 216 216 216 216 216 216 102 216 216 216 216 216 216 216 216 216 109 216 216 216 274 216 216 216 216 216 216 181
181 216 208 208 208 208 208 216 102 216 216 216 208 208 208 216 216 216 216 216 216 216 216 216 216 216 275 216 216 181
181 216 216 276 216 81 216 216 102 216 216 216 216 276 216 216 216 216 216 216 216 216 216 216 216 216 274 216 216 181
182 216 216 216 216 216 216 216 102 216 216 216 216 216 216 216 216 216 216 216 216 216 216 216 216 216 216 216 216 181
181 216 216 216 216 216 216 216 102 216 216 216 216 216 216 216 216 216 216 208 208 208 208 208 216 216 216 216 216 182
181 216 216 216 216 216 216 216 102 216 216 334 216 216 216 216 216 216 216 216 216 212 216 334 216 216 216 216 216 181
182 208 208 208 216 216 216 216 102 216 216 334 216 216 216 216 216 216 216 216 216 42 216 334 216 216 216 216 216 181
181 215 44 216 216 334 216 216 102 216 216 334 216 216 334 216 216 216 216 216 216 42 216 334 216 208 208 208 208 181
181 186 216 216 216 334 216 216 102 216 216 334 216 216 334 216 216 334 216 216 216 42 216 334 216 216 241 216 133 181
135 135 136 137 216 334 216 216 102 216 216 334 216 216 334 216 216 334 216 216 216 42 216 334 216 216 216 216 132 181
188 189 190 191 216 336 216 216 103 216 216 336 216 216 336 216 216 336 216 216 216 42 216 336 216 216 216 216 216 182